<svg width="21" height="18" viewBox="0 0 21 18" fill="none" xmlns="http://www.w3.org/2000/svg">
<path fill-rule="evenodd" clip-rule="evenodd" d="M0 1.5C0 1.10218 0.158035 0.720645 0.43934 0.43934C0.720644 0.158036 1.10218 0 1.5 0H19.5C19.8978 0 20.2794 0.158036 20.5607 0.43934C20.842 0.720645 21 1.10218 21 1.5C21 1.89782 20.842 2.27936 20.5607 2.56066C20.2794 2.84196 19.8978 3 19.5 3H1.5C1.10218 3 0.720644 2.84196 0.43934 2.56066C0.158035 2.27936 0 1.89782 0 1.5ZM0 9C0 8.60218 0.158035 8.22064 0.43934 7.93934C0.720644 7.65804 1.10218 7.5 1.5 7.5H19.5C19.8978 7.5 20.2794 7.65804 20.5607 7.93934C20.842 8.22064 21 8.60218 21 9C21 9.39782 20.842 9.77936 20.5607 10.0607C20.2794 10.342 19.8978 10.5 19.5 10.5H1.5C1.10218 10.5 0.720644 10.342 0.43934 10.0607C0.158035 9.77936 0 9.39782 0 9ZM9 16.5C9 16.1022 9.15804 15.7206 9.43934 15.4393C9.72064 15.158 10.1022 15 10.5 15H19.5C19.8978 15 20.2794 15.158 20.5607 15.4393C20.842 15.7206 21 16.1022 21 16.5C21 16.8978 20.842 17.2794 20.5607 17.5607C20.2794 17.842 19.8978 18 19.5 18H10.5C10.1022 18 9.72064 17.842 9.43934 17.5607C9.15804 17.2794 9 16.8978 9 16.5Z" fill="white"/>
</svg>
